<?xml version="1.0" encoding="UTF-8"?>
<svg id="Layer_2" data-name="Layer 2" xmlns="http://www.w3.org/2000/svg" xmlns:xlink="http://www.w3.org/1999/xlink" viewBox="0 0 114.398330688476562 113.229888916015625">
  <defs>
    <style>
      .cls-1 {
        clip-path: url(#clippath-20);
      }

      .cls-2 {
        clip-path: url(#clippath-11);
      }

      .cls-3 {
        stroke: #a34c2e;
        stroke-width: 2.628000020980835px;
      }

      .cls-3, .cls-4 {
        fill: none;
      }

      .cls-5 {
        clip-path: url(#clippath-16);
      }

      .cls-6 {
        opacity: .259995013475418;
      }

      .cls-7 {
        fill: url(#linear-gradient);
      }

      .cls-7, .cls-4, .cls-8, .cls-9, .cls-10, .cls-11, .cls-12 {
        stroke-width: 0px;
      }

      .cls-13 {
        opacity: .5;
      }

      .cls-14 {
        opacity: .300002992153168;
      }

      .cls-15 {
        clip-path: url(#clippath-2);
      }

      .cls-16 {
        clip-path: url(#clippath-13);
      }

      .cls-17 {
        clip-path: url(#clippath-25);
      }

      .cls-18 {
        clip-path: url(#clippath-15);
      }

      .cls-19 {
        clip-path: url(#clippath-6);
      }

      .cls-20 {
        clip-path: url(#clippath-26);
      }

      .cls-21 {
        clip-path: url(#clippath-7);
      }

      .cls-22 {
        clip-path: url(#clippath-21);
      }

      .cls-23 {
        clip-path: url(#clippath-1);
      }

      .cls-24 {
        clip-path: url(#clippath-4);
      }

      .cls-25 {
        clip-path: url(#clippath-27);
      }

      .cls-26 {
        clip-path: url(#clippath-12);
      }

      .cls-8 {
        fill: url(#linear-gradient-2);
      }

      .cls-27 {
        clip-path: url(#clippath-24);
      }

      .cls-28 {
        clip-path: url(#clippath-22);
      }

      .cls-9 {
        fill: url(#linear-gradient-3);
      }

      .cls-29 {
        clip-path: url(#clippath-9);
      }

      .cls-30 {
        clip-path: url(#clippath);
      }

      .cls-31 {
        opacity: .199996992945671;
      }

      .cls-10 {
        fill: #a34c2e;
      }

      .cls-32 {
        clip-path: url(#clippath-19);
      }

      .cls-33 {
        clip-path: url(#clippath-3);
      }

      .cls-11 {
        fill: #808285;
      }

      .cls-34 {
        clip-path: url(#clippath-8);
      }

      .cls-12 {
        fill: #fff;
      }

      .cls-35 {
        clip-path: url(#clippath-18);
      }

      .cls-36 {
        clip-path: url(#clippath-14);
      }

      .cls-37 {
        clip-path: url(#clippath-17);
      }

      .cls-38 {
        clip-path: url(#clippath-5);
      }

      .cls-39 {
        clip-path: url(#clippath-10);
      }

      .cls-40 {
        clip-path: url(#clippath-23);
      }

      .cls-41 {
        clip-path: url(#clippath-28);
      }
    </style>
    <clipPath id="clippath">
      <rect class="cls-4" x="18.82568359375" y="11.39544677734375" width="74.999984741210938" height="71.3280029296875"/>
    </clipPath>
    <clipPath id="clippath-1">
      <rect class="cls-4" x="18.82568359375" y="11.39544677734375" width="47.802993774414062" height="26.691986083984375"/>
    </clipPath>
    <clipPath id="clippath-2">
      <rect class="cls-4" x="18.82568359375" y="11.394439697265625" width="47.802993774414062" height="26.6929931640625"/>
    </clipPath>
    <clipPath id="clippath-3">
      <rect class="cls-4" x="21.228683471679688" y="51.04644775390625" width="69.243988037109375" height="31.677001953125"/>
    </clipPath>
    <clipPath id="clippath-4">
      <rect class="cls-4" x="21.228683471679688" y="51.04644775390625" width="69.24298095703125" height="31.677001953125"/>
    </clipPath>
    <clipPath id="clippath-5">
      <rect class="cls-4" x="44.315673828125" y="40.857452392578125" width="16.818008422851562" height="10.82598876953125"/>
    </clipPath>
    <clipPath id="clippath-6">
      <rect class="cls-4" x="44.315673828125" y="40.857452392578125" width="16.819000244140625" height="10.82598876953125"/>
    </clipPath>
    <clipPath id="clippath-7">
      <rect class="cls-4" x="33.462677001953125" y="41.52044677734375" width="13.923995971679688" height="10.795989990234375"/>
    </clipPath>
    <clipPath id="clippath-8">
      <rect class="cls-4" x="33.462677001953125" y="41.52044677734375" width="13.923995971679688" height="10.795989990234375"/>
    </clipPath>
    <clipPath id="clippath-9">
      <rect class="cls-4" x="36.912673950195312" y="43.240447998046875" width="6.988998413085938" height="7.333984375"/>
    </clipPath>
    <clipPath id="clippath-10">
      <rect class="cls-4" x="36.912673950195312" y="43.23944091796875" width="6.988998413085938" height="7.334991455078125"/>
    </clipPath>
    <clipPath id="clippath-11">
      <rect class="cls-4" x="85.864669799804688" y="59.36444091796875" width="4.7550048828125" height="2.110015869140625"/>
    </clipPath>
    <clipPath id="clippath-12">
      <rect class="cls-4" x="85.864669799804688" y="59.364471435546875" width="4.756011962890625" height="2.1099853515625"/>
    </clipPath>
    <clipPath id="clippath-13">
      <rect class="cls-4" x="82.660690307617188" y="59.63043212890625" width="3.032989501953125" height="2"/>
    </clipPath>
    <clipPath id="clippath-14">
      <path class="cls-4" d="M71.479690551757812,33.659454345703125s-26.6920166015625,4.227996826171875-43.891006469726562,8.978973388671875c0,0-5.615005493164062,1.60302734375-4.37200927734375,8.4530029296875,0,0,2.999008178710938,13.647003173828125,8.298004150390625,23.230010986328125,0,0,3.522003173828125,5.37799072265625,10.69000244140625,3.545013427734375,0,0,30.986007690429688-6.9320068359375,44.513992309570312-11.322998046875,0,0,5.70599365234375-2.09100341796875,3.67999267578125-8.576019287109375,0,0-6.28997802734375-16.243988037109375-9.563995361328125-20.57000732421875,0,0-2.760986328125-3.866973876953125-7.751983642578125-3.866973876953125-.511016845703125,0-1.045013427734375.03997802734375-1.602996826171875.128997802734375"/>
    </clipPath>
    <linearGradient id="linear-gradient" x1="-187.776321411132812" y1="476.084824968596877" x2="-186.776321411132812" y2="476.084824968596877" gradientTransform="translate(-30412.174718721853424 12017.525718292150486) rotate(89.99999229183544) scale(63.999888034036246 -63.999888034036239)" gradientUnits="userSpaceOnUse">
      <stop offset="0" stop-color="#fac7c8"/>
      <stop offset=".593406982421875" stop-color="#ef3d39"/>
      <stop offset=".701521663147587" stop-color="#e63633"/>
      <stop offset="1" stop-color="#d22727"/>
    </linearGradient>
    <clipPath id="clippath-15">
      <rect class="cls-4" x="18.82568359375" y="11.39544677734375" width="74.999984741210938" height="71.3280029296875"/>
    </clipPath>
    <clipPath id="clippath-16">
      <rect class="cls-4" x="23.037673950195312" y="33.529449462890625" width="67.795989990234375" height="44.717987060546875"/>
    </clipPath>
    <clipPath id="clippath-17">
      <rect class="cls-4" x="23.037673950195312" y="33.530426025390625" width="67.795989990234375" height="44.717010498046875"/>
    </clipPath>
    <clipPath id="clippath-18">
      <path class="cls-4" d="M71.391677856445312,33.915435791015625s-24.227996826171875,3.842010498046875-39.839996337890625,8.154998779296875c0,0-5.098007202148438,1.4530029296875-3.970001220703125,7.6710205078125,0,0,2.722991943359375,12.38897705078125,7.535003662109375,21.08599853515625,0,0,3.195999145507812,4.878997802734375,9.702987670898438,3.217987060546875,0,0,28.130996704101562-6.292999267578125,40.409011840820312-10.277008056640625,0,0,5.177001953125-1.902984619140625,3.339996337890625-7.7869873046875,0,0-5.709014892578125-14.7449951171875-8.6820068359375-18.66900634765625,0,0-2.5050048828125-3.514007568359375-7.045989990234375-3.514007568359375-.4630126953125,0-.94500732421875.0360107421875-1.449005126953125.11700439453125"/>
    </clipPath>
    <linearGradient id="linear-gradient-2" y1="476.09025398772792" y2="476.09025398772792" gradientTransform="translate(-9674.696860717973323 3863.781159076777385) rotate(89.999977102953991) scale(20.443871626873047 -20.443871626873044)" xlink:href="#linear-gradient"/>
    <clipPath id="clippath-19">
      <path class="cls-4" d="M43.949676513671875,28.818450927734375l-2.638992309570312-6.733001708984375c-.579010009765625-1.48101806640625-.347000122070312-2.322021484375.735000610351562-2.516998291015625,1.08599853515625-.19500732421875,1.89599609375.447998046875,2.480987548828125,1.928985595703125l2.6510009765625,6.696014404296875c.5830078125,1.470977783203125.348007202148438,2.31298828125-.739990234375,2.527984619140625-.135009765625.0260009765625-.266006469726562.03900146484375-.39300537109375.03900146484375-.89599609375,0-1.585006713867188-.647979736328125-2.095001220703125-1.941986083984375M41.024673461914062,16.962432861328125c-1.677993774414062.300018310546875-2.769989013671875,1.08001708984375-3.274993896484375,2.3480224609375-.39599609375.938995361328125-.24200439453125,2.2659912109375.4219970703125,3.98199462890625l2.184005737304688,5.6309814453125c.496002197265625,1.27801513671875,1.08099365234375,2.2650146484375,1.774002075195312,2.962005615234375.23699951171875.238006591796875.48699951171875.438995361328125.75.61199951171875,1.370986938476562.90802001953125,2.902999877929688,1.19000244140625,4.597000122070312.852996826171875,1.694992065429688-.337982177734375,2.793991088867188-1.14599609375,3.300994873046875-2.41900634765625.102996826171875-.23699951171875.1669921875-.5009765625.197006225585938-.7869873046875.083999633789062-.842010498046875-.135009765625-1.885986328125-.63800048828125-3.14300537109375l-2.219009399414062-5.552001953125c-.675003051757812-1.694000244140625-1.505996704101562-2.878997802734375-2.537994384765625-3.54998779296875-1.027008056640625-.696990966796875-2.14801025390625-1.0469970703125-3.358001708984375-1.0469970703125-.389999389648438,0-.78900146484375.0369873046875-1.197006225585938.1099853515625M55.103683471679688,14.679443359375l4.909988403320312,11.964996337890625c-.38299560546875,1.02301025390625-.916000366210938,1.600006103515625-1.5889892578125,1.733001708984375-.4530029296875.087005615234375-.805999755859375-.082000732421875-1.064010620117188-.510009765625-.07598876953125-.08599853515625-.217987060546875-.433990478515625-.487991333007812-1.095977783203125l-4.708999633789062-11.574005126953125-3.350997924804688.5889892578125,5.029998779296875,12.489990234375c.188003540039062.464019775390625.369003295898438.860015869140625.5469970703125,1.199005126953125.248001098632812.475006103515625.48199462890625.832000732421875.705001831054688,1.089019775390625.658004760742188.7239990234375,1.563995361328125.954986572265625,2.65399169921875.738983154296875,1.241012573242188-.24298095703125,2.260009765625-1.126007080078125,3.0830078125-2.678009033203125l.7030029296875,1.694000244140625,3.379989624023438-.665985107421875-.858993530273438-2.0570068359375-5.600997924804688-13.501983642578125-3.350997924804688.584991455078125ZM30.2216796875,13.1744384765625l.718994140625,9.019012451171875-5.888992309570312-8.125-3.904998779296875.678985595703125c1.5419921875,1.916015625,3.121994018554688,3.8170166015625,4.668991088867188,5.718994140625,2.344009399414062,2.834014892578125,3.958999633789062,4.9940185546875,4.88800048828125,6.5050048828125l2.533004760742188,6.680999755859375.81500244140625,2.156005859375,3.770004272460938-.764007568359375-.822006225585938-2.14300537109375-2.546005249023438-6.64697265625-.477996826171875-13.72802734375-3.753997802734375.64801025390625Z"/>
    </clipPath>
    <linearGradient id="linear-gradient-3" x1="-187.776321411132812" y1="476.098092622176409" x2="-186.776321411132812" y2="476.098092622176409" gradientTransform="translate(-4398.600040996555435 -11273.243702332714747) rotate(-179.999974047528013) scale(23.729162771378903 -23.729162771378903)" gradientUnits="userSpaceOnUse">
      <stop offset="0" stop-color="#808285"/>
      <stop offset=".616623096939215" stop-color="#2f2f30"/>
      <stop offset="1" stop-color="#010101"/>
    </linearGradient>
    <clipPath id="clippath-20">
      <rect class="cls-4" x="18.82568359375" y="11.39544677734375" width="74.999984741210938" height="71.3280029296875"/>
    </clipPath>
    <clipPath id="clippath-21">
      <rect class="cls-4" x="89.152664184570312" y="40.22344970703125" width="4.673004150390625" height="3.56500244140625"/>
    </clipPath>
    <clipPath id="clippath-22">
      <rect class="cls-4" x="89.152664184570312" y="40.22344970703125" width="4.673004150390625" height="3.56500244140625"/>
    </clipPath>
    <clipPath id="clippath-23">
      <rect class="cls-4" x="85.866683959960938" y="41.04345703125" width="2.97100830078125" height="3.20697021484375"/>
    </clipPath>
    <clipPath id="clippath-24">
      <rect class="cls-4" x="85.866683959960938" y="41.04241943359375" width="2.97100830078125" height="3.2080078125"/>
    </clipPath>
    <clipPath id="clippath-25">
      <rect class="cls-4" x="28.735671997070312" y="41.251434326171875" width="55.522003173828125" height="26.324005126953125"/>
    </clipPath>
    <clipPath id="clippath-26">
      <rect class="cls-4" x="28.735671997070312" y="41.251434326171875" width="55.522003173828125" height="26.324005126953125"/>
    </clipPath>
    <clipPath id="clippath-27">
      <rect class="cls-4" x="27.724685668945312" y="34.087432861328125" width="61.3389892578125" height="24.260009765625"/>
    </clipPath>
    <clipPath id="clippath-28">
      <rect class="cls-4" x="27.724685668945312" y="34.086456298828125" width="61.339996337890625" height="24.260986328125"/>
    </clipPath>
  </defs>
  <g id="Layer_1-2" data-name="Layer 1">
    <g>
      <g class="cls-30">
        <g class="cls-31">
          <g class="cls-23">
            <g class="cls-15">
              <path class="cls-12" d="M38.414962768554688,32.867340087890625l-2.509994506835938-6.37298583984375-.61199951171875-14.069000244140625c-.013992309570312-.313018798828125-.160003662109375-.600006103515625-.40399169921875-.795013427734375-.245010375976562-.19500732421875-.5570068359375-.27398681640625-.863006591796875-.217010498046875l-4.839996337890625.876007080078125c-.548004150390625.10101318359375-.928009033203125.602020263671875-.8800048828125,1.154998779296875l.335006713867188,3.7760009765625-2.746002197265625-3.71697998046875c-.246002197265625-.332000732421875-.656005859375-.4940185546875-1.061004638671875-.4210205078125l-5.126998901367188.94000244140625c-.375.069000244140625-.684005737304688.33099365234375-.81500244140625.688018798828125-.130996704101562.358001708984375-.063995361328125.75799560546875.178009033203125,1.051971435546875l.578994750976562.707000732421875c1.570999145507812,1.917999267578125,3.167999267578125,3.805023193359375,4.725997924804688,5.685028076171875,2.281005859375,2.71197509765625,3.86199951171875,4.78399658203125,4.7449951171875,6.167999267578125l2.531005859375,6.506988525390625,1.000991821289062,2.572998046875c.1400146484375.363006591796875.460006713867188.6099853515625.824005126953125.670989990234375.1300048828125.02099609375.264999389648438.01800537109375.399002075195312-.009002685546875l.449005126953125-.095001220703125,4.386001586914062-.923980712890625c.308990478515625-.0670166015625.574996948242188-.266998291015625.72698974609375-.54400634765625.149002075195312-.277984619140625.167007446289062-.61199951171875.052001953125-.90399169921875l-1.074005126953125-2.730010986328125ZM66.541976928710938,29.93133544921875l-1.137008666992188-2.654998779296875-.001998901367188.001007080078125-5.88800048828125-13.845001220703125c-.197006225585938-.4630126953125-.69000244140625-.72900390625-1.18499755859375-.63800048828125l-4.428009033203125.81500244140625c-.319000244140625.058990478515625-.595993041992188.260009765625-.750991821289062.5469970703125-.029998779296875.05499267578125-.055007934570312.11199951171875-.074005126953125.1719970703125-.244003295898438-.295989990234375-.636001586914062-.447998046875-1.02899169921875-.375l-4.423004150390625.82000732421875c-.3179931640625.05999755859375-.593994140625.260009765625-.75.545013427734375-.154006958007812.28497314453125-.173004150390625.626983642578125-.048995971679688.92498779296875l.847000122070312,2.050994873046875c-.425003051757812-.49798583984375-.902999877929688-.92498779296875-1.444000244140625-1.272003173828125-.884002685546875-.589996337890625-1.882003784179688-.99700927734375-2.934005737304688-1.173980712890625-.912002563476562-.1510009765625-1.856002807617188-.131011962890625-2.800003051757812.0479736328125-2.026992797851562.35101318359375-3.75799560546875,1.50701904296875-4.4639892578125,3.384002685546875-.106002807617188.264007568359375-.191009521484375.5670166015625-.243011474609375.881011962890625-.215988159179688,1.355010986328125.108001708984375,2.743011474609375.708999633789062,4.272003173828125l2.235000610351562,5.614990234375c.56201171875,1.407012939453125,1.248001098632812,2.587005615234375,2.165008544921875,3.4949951171875.319992065429688.316009521484375.660003662109375.589019775390625,1.018997192382812.8170166015625.867996215820312.56500244140625,1.8280029296875.947998046875,2.837997436523438,1.115997314453125.003997802734375,0,.009002685546875.001007080078125.014999389648438.001983642578125.96600341796875.162017822265625,1.957000732421875.1240234375,2.951004028320312-.084991455078125,2.039993286132812-.39300537109375,3.7550048828125-1.574981689453125,4.458999633789062-3.451995849609375.108001708984375-.2550048828125.192001342773438-.56201171875.2449951171875-.876007080078125.021011352539062-.123992919921875.03399658203125-.22998046875.042007446289062-.316986083984375.024002075195312-.2860107421875.027999877929688-.571014404296875.009994506835938-.858001708984375.12200927734375.266998291015625.2449951171875.516998291015625.371002197265625.751983642578125.009002685546875.016021728515625.01800537109375.029998779296875.0260009765625.0460205078125.281997680664062.522003173828125.569000244140625.962982177734375.9010009765625,1.34100341796875.638992309570312.697998046875,1.457992553710938,1.13897705078125,2.33599853515625,1.28399658203125l.011001586914062.0009765625c.6199951171875.10302734375,1.240005493164062.0670166015625,1.841995239257812-.052978515625.904006958007812-.183013916015625,1.710006713867188-.60601806640625,2.400009155273438-1.201995849609375.248992919921875.233001708984375.600997924804688.340972900390625.953994750976562.26898193359375l4.453994750976562-.917999267578125c.314010620117188-.066009521484375.587005615234375-.269989013671875.735000610351562-.55499267578125.1510009765625-.287994384765625.163009643554688-.62701416015625.0360107421875-.92401123046875M45.319976806640625,28.706329345703125l-.185012817382812-.462982177734375.243011474609375.5989990234375c-.019012451171875-.04400634765625-.038009643554688-.089996337890625-.057998657226562-.136016845703125"/>
            </g>
          </g>
        </g>
        <g class="cls-6">
          <g class="cls-33">
            <g class="cls-24">
              <path class="cls-11" d="M76.496780395507812,52.660736083984375s-4.120025634765625-2.5059814453125-9.863006591796875-1.27398681640625c0,0-25.552993774414062,5.454010009765625-41.664993286132812,10.204010009765625,0,0-2.613998413085938.7969970703125-3.29901123046875,2.691986083984375-.542999267578125.865020751953125-.695999145507812,2.01800537109375.192001342773438,3.506011962890625,0,0,5.322006225585938,8.003997802734375,12.207000732421875,13.279998779296875,0,0,4.400009155273438,2.907989501953125,11.141998291015625,1.014984130859375,0,0,29.31298828125-7.56500244140625,41.873992919921875-11.699981689453125,0,0,2.40899658203125-.876007080078125,2.989013671875-2.600006103515625.561981201171875-.9010009765625.662994384765625-2.097991943359375-.5880126953125-3.593994140625,0,0-9.014007568359375-9.240020751953125-12.988983154296875-11.529022216796875"/>
            </g>
          </g>
        </g>
        <g class="cls-14">
          <g class="cls-38">
            <g class="cls-19">
              <path class="cls-11" d="M50.717575073242188,50.300750732421875c.275985717773438.3170166015625.529998779296875.5560302734375.767990112304688.735015869140625.697998046875.496002197265625,1.608001708984375.70098876953125,2.671005249023438.635986328125,1.211990356445312-.072998046875,2.160995483398438-.561981201171875,2.873992919921875-1.488983154296875l.804000854492188,1.114990234375,3.300003051757812-.201995849609375-.983001708984375-1.35400390625-6.416000366210938-8.885009765625-3.274002075195312.1510009765625,5.631011962890625,7.871002197265625c-.31201171875.621002197265625-.801010131835938.95001220703125-1.4580078125.99200439453125-.442001342773438.02301025390625-.800994873046875-.10400390625-1.082992553710938-.39300537109375-.082000732421875-.05999755859375-.246002197265625-.287994384765625-.555007934570312-.7239990234375l-5.408004760742188-7.610992431640625-3.272994995117188.15399169921875,5.78399658203125,8.212005615234375c.214996337890625.302001953125.419998168945312.56500244140625.618011474609375.7919921875"/>
            </g>
          </g>
        </g>
        <g class="cls-14">
          <g class="cls-21">
            <g class="cls-34">
              <path class="cls-11" d="M36.809783935546875,49.03863525390625c.571990966796875.84002685546875,1.214996337890625,1.501007080078125,1.944992065429688,1.9840087890625.25.167999267578125.511001586914062.30902099609375.781997680664062.43499755859375,1.41400146484375.662994384765625,2.945999145507812.941009521484375,4.600006103515625.8380126953125,1.652999877929688-.10400390625,2.688003540039062-.541015625,3.10400390625-1.308990478515625.08599853515625-.146026611328125.13299560546875-.308013916015625.143997192382812-.48602294921875.02899169921875-.524993896484375-.2550048828125-1.20098876953125-.835006713867188-2.022979736328125l-2.554000854492188-3.6500244140625c-.776992797851562-1.11297607421875-1.675994873046875-1.9169921875-2.738998413085938-2.405975341796875-1.402999877929688-.6710205078125-2.925994873046875-.969024658203125-4.56500244140625-.889007568359375-1.638992309570312.079010009765625-2.6669921875.501983642578125-3.084991455078125,1.269989013671875-.329010009765625.5679931640625-.09100341796875,1.415008544921875.677001953125,2.537994384765625l2.5260009765625,3.697998046875Z"/>
            </g>
          </g>
        </g>
        <g class="cls-14">
          <g class="cls-29">
            <g class="cls-39">
              <path class="cls-11" d="M37.871383666992188,43.24444580078125c1.060989379882812-.051971435546875,1.902999877929688.404022216796875,2.57598876953125,1.378021240234375l3.055999755859375,4.402008056640625c.67401123046875.9639892578125.496002197265625,1.47998046875-.56500244140625,1.54498291015625-1.063995361328125.06298828125-1.912994384765625-.39300537109375-2.583999633789062-1.363006591796875l-3.045989990234375-4.420989990234375c-.66900634765625-.975006103515625-.494003295898438-1.488006591796875.563003540039062-1.541015625"/>
            </g>
          </g>
        </g>
        <g class="cls-14">
          <g class="cls-2">
            <g class="cls-26">
              <path class="cls-11" d="M87.745285034179688,61.44415283203125l-1.220001220703125-1.597991943359375,2.2239990234375,1.52001953125.41497802734375-.0260009765625-.194000244140625-1.641021728515625,1.20501708984375,1.566009521484375.44500732421875-.03399658203125-1.441009521484375-1.86700439453125-.6199951171875.045013427734375.1719970703125,1.3599853515625c.014984130859375.139007568359375.03399658203125.24200439453125.0469970703125.31298828125-.084014892578125-.056976318359375-.209991455078125-.147979736328125-.384002685546875-.2659912109375l-1.83599853515625-1.266998291015625-.694000244140625.04901123046875,1.436004638671875,1.876007080078125.44500732421875-.030029296875Z"/>
            </g>
          </g>
        </g>
        <g class="cls-14">
          <g class="cls-16">
            <polygon class="cls-11" points="85.408767700195312 59.630126953125 82.659744262695312 59.8271484375 82.826766967773438 60.0511474609375 83.971755981445312 59.967132568359375 85.234756469726562 61.630126953125 85.246749877929688 61.630126953125 85.692764282226562 61.59613037109375 84.429763793945312 59.9371337890625 85.580764770507812 59.850128173828125 85.408767700195312 59.630126953125"/>
          </g>
        </g>
        <path class="cls-10" d="M27.166671752929688,43.48663330078125s-5.61700439453125,1.608001708984375-4.375,8.4580078125c0,0,2.998992919921875,13.64501953125,8.301986694335938,23.225006103515625,0,0,3.519012451171875,5.381011962890625,10.689010620117188,3.5469970703125,0,0,30.985992431640625-6.9320068359375,44.5159912109375-11.321990966796875,0,0,5.70001220703125-2.095001220703125,3.670989990234375-8.579010009765625,0,0-6.285980224609375-16.24200439453125-9.561004638671875-20.561981201171875,0,0-3.350982666015625-4.7020263671875-9.3599853515625-3.7440185546875,0,0-26.683990478515625,4.22900390625-43.881988525390625,8.97698974609375"/>
        <path class="cls-3" d="M27.166671752929688,43.48663330078125s-5.61700439453125,1.608001708984375-4.375,8.4580078125c0,0,2.998992919921875,13.64501953125,8.301986694335938,23.225006103515625,0,0,3.519012451171875,5.381011962890625,10.689010620117188,3.5469970703125,0,0,30.985992431640625-6.9320068359375,44.5159912109375-11.321990966796875,0,0,5.70001220703125-2.095001220703125,3.670989990234375-8.579010009765625,0,0-6.285980224609375-16.24200439453125-9.561004638671875-20.561981201171875,0,0-3.350982666015625-4.7020263671875-9.3599853515625-3.7440185546875,0,0-26.683990478515625,4.22900390625-43.881988525390625,8.97698974609375Z"/>
      </g>
      <g class="cls-36">
        <rect class="cls-7" x="17.798442621768061" y="14.550958396333158" width="78.801445444940441" height="84.127987382138372" transform="translate(-22.241439641900456 69.50632887084339) rotate(-53.923333781929742)"/>
      </g>
      <g class="cls-18">
        <g class="cls-14">
          <g class="cls-5">
            <g class="cls-37">
              <path class="cls-12" d="M90.398361206054688,57.968475341796875s-6.290008544921875-16.2449951171875-9.56298828125-20.571014404296875c0,0-3.35400390625-4.699981689453125-9.35601806640625-3.738006591796875,0,0-26.691986083984375,4.22802734375-43.8909912109375,8.97802734375,0,0-5.613998413085938,1.602996826171875-4.370986938476562,8.4539794921875,0,0,2.998001098632812,13.647003173828125,8.297988891601562,23.23101806640625,0,0,3.521011352539062,5.376983642578125,10.691009521484375,3.542999267578125,0,0,30.983978271484375-6.9320068359375,44.51300048828125-11.322998046875,0,0,5.70599365234375-2.09100341796875,3.678985595703125-8.574005126953125M86.495376586914062,65.72845458984375c-13.0670166015625,4.237030029296875-42.996002197265625,10.935028076171875-42.996002197265625,10.935028076171875-6.9219970703125,1.76898193359375-10.322006225585938-3.42401123046875-10.322006225585938-3.42401123046875-5.121002197265625-9.256988525390625-8.017990112304688-22.436004638671875-8.017990112304688-22.436004638671875-1.20001220703125-6.613006591796875,4.222991943359375-8.16400146484375,4.222991943359375-8.16400146484375,16.613006591796875-4.59100341796875,42.389984130859375-8.67401123046875,42.389984130859375-8.67401123046875,5.80401611328125-.926971435546875,9.037017822265625,3.612030029296875,9.037017822265625,3.612030029296875,3.162994384765625,4.177978515625,9.233978271484375,19.864990234375,9.233978271484375,19.864990234375,1.96002197265625,6.261993408203125-3.5479736328125,8.285980224609375-3.5479736328125,8.285980224609375"/>
            </g>
          </g>
        </g>
      </g>
      <g class="cls-35">
        <rect class="cls-8" x="21.618212899046895" y="16.882399909149271" width="73.622865278566366" height="75.740128770568646" transform="translate(-21.240806571837396 62.782089728389685) rotate(-48.894317318597459)"/>
      </g>
      <polygon class="cls-12" points="37.681671142578125 48.95343017578125 41.781661987304688 48.05645751953125 40.6026611328125 45.006439208984375 28.69866943359375 47.571441650390625 29.8526611328125 50.675445556640625 33.880661010742188 49.787445068359375 40.171661376953125 66.384429931640625 40.991668701171875 68.5384521484375 44.8316650390625 67.60345458984375 44.007659912109375 65.46044921875 37.681671142578125 48.95343017578125"/>
      <g class="cls-32">
        <rect class="cls-9" x="27.942666209498245" y=".664368194698575" width="30.175985024851169" height="47.006148254157537" transform="translate(12.102865787713391 62.627479797548432) rotate(-80.515367897489199)"/>
      </g>
      <g class="cls-1">
        <path class="cls-12" d="M71.467361450195312,58.9317626953125c-.135009765625-.66900634765625-.427001953125-1.5460205078125-.88299560546875-2.6409912109375l-2.576995849609375-6.18902587890625c-.613998413085938-1.470001220703125-1.156997680664062-2.477996826171875-1.64599609375-3.055999755859375-.936004638671875-1.05999755859375-2.094009399414062-1.457977294921875-3.459014892578125-1.1619873046875-1.250991821289062.27301025390625-2.196990966796875,1.097991943359375-2.833999633789062,2.47698974609375l-2.802993774414062-6.899993896484375-3.406997680664062.718994140625,7.705001831054688,19.089019775390625.843994140625,2.08697509765625,3.451004028320312-.827972412109375-.6199951171875-1.509002685546875c1.62799072265625.8909912109375,3.049972534179688,1.173004150390625,4.275985717773438.878997802734375,1.37799072265625-.33001708984375,2.052001953125-1.141998291015625,2.029998779296875-2.406005859375-.010009765625-.167999267578125-.0369873046875-.352996826171875-.076995849609375-.55999755859375M66.611373901367188,59.7607421875c-.574005126953125.136016845703125-1.237014770507812.050018310546875-2.008010864257812-.287994384765625l-3.90399169921875-9.56298828125c.373001098632812-.600006103515625.858993530273438-.947998046875,1.42498779296875-1.072998046875.990005493164062-.218017578125,1.784011840820312.39801025390625,2.363006591796875,1.8079833984375l2.749008178710938,6.66302490234375c.584991455078125,1.40899658203125.37298583984375,2.218994140625-.625,2.452972412109375"/>
        <g class="cls-14">
          <g class="cls-22">
            <g class="cls-28">
              <path class="cls-11" d="M93.825668334960938,43.05084228515625l-1.271026611328125-2.826995849609375-.636993408203125.135009765625.03399658203125,2.15399169921875c0,.218017578125.00799560546875.38201904296875.0150146484375.493011474609375-.08099365234375-.084014892578125-.20001220703125-.21099853515625-.364013671875-.381988525390625l-1.735992431640625-1.831024169921875-.7130126953125.15301513671875,1.266021728515625,2.842010498046875.454986572265625-.09600830078125-1.074005126953125-2.4210205078125,2.10601806640625,2.193023681640625.425994873046875-.089996337890625-.0260009765625-2.595001220703125,1.06201171875,2.37298583984375.457000732421875-.10101318359375Z"/>
            </g>
          </g>
        </g>
        <g class="cls-14">
          <g class="cls-40">
            <g class="cls-27">
              <polygon class="cls-11" points="88.837692260742188 41.37945556640625 88.686691284179688 41.04345703125 85.865676879882812 41.6474609375 86.011672973632812 41.986480712890625 87.186691284179688 41.731475830078125 88.299667358398438 44.25146484375 88.769668579101562 44.146484375 87.656661987304688 41.63348388671875 88.837692260742188 41.37945556640625"/>
            </g>
          </g>
        </g>
        <path class="cls-12" d="M83.429336547851562,52.995269775390625l-.1719970703125-.40301513671875-3.509002685546875.80499267578125c.475006103515625,1.107025146484375.701019287109375,1.733001708984375.730010986328125,1.894012451171875.12799072265625.78399658203125-.2130126953125,1.269012451171875-1.05499267578125,1.464996337890625-1.1820068359375.274017333984375-2.061004638671875-.29998779296875-2.665008544921875-1.725006103515625l-1.15899658203125-2.722991943359375,6.86199951171875-1.553009033203125-1.3699951171875-3.15899658203125c-.699005126953125-1.6259765625-1.558990478515625-2.746002197265625-2.610992431640625-3.3599853515625-1.4000244140625-.84100341796875-2.98602294921875-1.072998046875-4.69500732421875-.704010009765625-1.7440185546875.373016357421875-2.881011962890625,1.196014404296875-3.428009033203125,2.468994140625-.3909912109375.938018798828125-.222991943359375,2.22900390625.468017578125,3.8800048828125l2.27398681640625,5.415008544921875c.519989013671875,1.230987548828125,1.144012451171875,2.16400146484375,1.868011474609375,2.811981201171875.246978759765625.222015380859375.5059814453125.409027099609375.77099609375.56201171875,1.444000244140625.821990966796875,3.045989990234375,1.02301025390625,4.84698486328125.593994140625,1.800018310546875-.423004150390625,2.97601318359375-1.3079833984375,3.4580078125-2.63800048828125.07501220703125-.220001220703125.12701416015625-.444976806640625.154998779296875-.673980712890625.045989990234375-.378997802734375.019989013671875-.76800537109375-.07000732421875-1.16400146484375-.083984375-.2860107421875-.311981201171875-.907012939453125-.699005126953125-1.792999267578125M74.614364624023438,49.983245849609375l-.60601806640625-1.4229736328125c-.600982666015625-1.427001953125-.333984375-2.266021728515625.805999755859375-2.5150146484375,1.1400146484375-.24798583984375,2.0150146484375.339996337890625,2.618988037109375,1.75799560546875l.610015869140625,1.417022705078125-3.428985595703125.762969970703125Z"/>
        <path class="cls-12" d="M53.071685791015625,48.238250732421875l-3.421005249023438.751007080078125,4.826004028320312,12.175994873046875c-.409011840820312,1.0780029296875-.958999633789062,1.697998046875-1.6510009765625,1.865020751953125-.460006713867188.105987548828125-.817001342773438-.050994873046875-1.07000732421875-.483001708984375-.076995849609375-.087005615234375-.21600341796875-.4429931640625-.48199462890625-1.115997314453125l-4.624008178710938-11.774993896484375-3.4219970703125.75299072265625,4.94000244140625,12.7080078125c.182998657226562.470977783203125.363998413085938.87298583984375.537002563476562,1.220001220703125.246994018554688.478973388671875.477996826171875.837982177734375.7030029296875,1.093994140625.662994384765625.720977783203125,1.578994750976562.923004150390625,2.690994262695312.6519775390625,1.268997192382812-.302978515625,2.319000244140625-1.261993408203125,3.179000854492188-2.90399169921875l.688003540039062,1.725006103515625,3.45098876953125-.829986572265625-.842987060546875-2.094024658203125-5.501998901367188-13.74200439453125Z"/>
        <g class="cls-13">
          <g class="cls-17">
            <g class="cls-20">
              <path class="cls-11" d="M65.359466552734375,61.01324462890625l-.085006713867188-.20501708984375c.166000366210938.09002685546875.319000244140625.14801025390625.47900390625.224029541015625-.128005981445312-.001007080078125-.255996704101562.004974365234375-.393997192382812-.019012451171875M65.753463745117188,61.032257080078125c.220001220703125.00799560546875.44000244140625.024993896484375.63800048828125-.02301025390625.807998657226562-.188018798828125,1.072998046875-.777008056640625.845993041992188-1.735015869140625-.151992797851562.126007080078125-.345001220703125.22100830078125-.589004516601562.27801513671875-.573989868164062.134002685546875-1.235992431640625.048980712890625-2.00799560546875-.287994384765625l-3.574996948242188-8.75799560546875c-.21600341796875.1719970703125-.41400146484375.37799072265625-.587005615234375.652984619140625l3.904998779296875,9.56298828125c.348007202148438.152008056640625.670013427734375.239013671875.97601318359375.291015625l-.085006713867188-.20501708984375c.166000366210938.09002685546875.319000244140625.14801025390625.47900390625.224029541015625M58.611465454101562,61.771240234375l-5.503005981445312-13.74200439453125-3.41900634765625.75201416015625.511001586914062,1.287994384765625,2.6510009765625-.58099365234375,5.501998901367188,13.74200439453125.331008911132812.82098388671875.768997192382812-.186004638671875-.841995239257812-2.093994140625ZM44.045455932617188,65.250244140625l-5.832992553710938-15.212005615234375-.751007080078125.165008544921875,6.327011108398438,16.5059814453125.332992553710938.86602783203125.748001098632812-.180999755859375-.824005126953125-2.144012451171875ZM71.581466674804688,59.283233642578125c-.009002685546875-.1669921875-.03802490234375-.352996826171875-.0780029296875-.561004638671875-.134002685546875-.667999267578125-.427001953125-1.543975830078125-.883026123046875-2.6409912109375l-2.576980590820312-6.188995361328125c-.613998413085938-1.470001220703125-1.155990600585938-2.47900390625-1.645004272460938-3.055999755859375-.936996459960938-1.058990478515625-2.093994140625-1.4580078125-3.457992553710938-1.1619873046875-1.253005981445312.272979736328125-2.197998046875,1.097991943359375-2.835006713867188,2.47698974609375l-2.803985595703125-6.899993896484375-3.406005859375.720001220703125.52099609375,1.292999267578125,2.628005981445312-.55401611328125,2.804000854492188,6.899017333984375c.636993408203125-1.378021240234375,1.58099365234375-2.2030029296875,2.833999633789062-2.47601318359375,1.363998413085938-.295989990234375,2.521987915039062.102996826171875,3.458999633789062,1.1619873046875.488998413085938.5780029296875,1.030990600585938,1.586029052734375,1.644989013671875,3.055023193359375l2.576995849609375,6.19000244140625c.457000732421875,1.095977783203125.748992919921875,1.972991943359375.884002685546875,2.641998291015625.019989013671875.108001708984375.024993896484375.194976806640625.040008544921875.2919921875.1829833984375-.339996337890625.29998779296875-.725006103515625.29400634765625-1.191009521484375M41.062454223632812,48.014251708984375l.756011962890625-.166015625-1.177001953125-3.04998779296875-11.906005859375,2.56500244140625.483001708984375,1.298980712890625,11.166000366210938-2.405975341796875.677993774414062,1.75799560546875ZM51.054458618164062,62.681243896484375c.264999389648438.6719970703125.404006958007812,1.027984619140625.479995727539062,1.114990234375.253005981445312.433013916015625.6090087890625.589019775390625,1.07000732421875.483001708984375.692001342773438-.165985107421875,1.242996215820312-.7869873046875,1.6510009765625-1.863983154296875l-.212005615234375-.540008544921875c-.333999633789062.509002685546875-.725997924804688.834991455078125-1.181991577148438.94598388671875-.460006713867188.10601806640625-.816009521484375-.052978515625-1.069000244140625-.48297119140625-.077011108398438-.087005615234375-.21600341796875-.443023681640625-.482009887695312-1.11602783203125l-4.625991821289062-11.774993896484375-3.419998168945312.753997802734375.501998901367188,1.28900146484375,2.660995483398438-.583984375,4.626998901367188,11.774993896484375ZM76.538436889648438,56.28125c.60400390625,1.423980712890625,1.483001708984375,1.998992919921875,2.665008544921875,1.7239990234375.842010498046875-.196014404296875,1.183013916015625-.67999267578125,1.05499267578125-1.464996337890625-.00897216796875-.052001953125-.04998779296875-.177001953125-.103973388671875-.331024169921875-.177001953125.14501953125-.389007568359375.266998291015625-.694000244140625.337005615234375-1.1820068359375.2760009765625-2.061004638671875-.29998779296875-2.665008544921875-1.722991943359375l-.614990234375-1.447998046875-.802001953125.1820068359375,1.15997314453125,2.7239990234375ZM73.565444946289062,44.78125c1.709014892578125-.3690185546875,3.295013427734375-.136993408203125,4.69500732421875.7039794921875,1.050994873046875.615020751953125,1.9119873046875,1.7340087890625,2.610992431640625,3.36102294921875l.8170166015625,1.88299560546875.80999755859375-.18402099609375-1.3699951171875-3.157989501953125c-.699005126953125-1.626983642578125-1.55902099609375-2.746002197265625-2.61102294921875-3.3599853515625-1.399993896484375-.842010498046875-2.98699951171875-1.074005126953125-4.694976806640625-.704010009765625-1.7440185546875.37298583984375-2.8800048828125,1.196014404296875-3.428009033203125,2.468994140625-.15899658203125.3800048828125-.201995849609375.832000732421875-.17901611328125,1.3280029296875.571014404296875-1.1929931640625,1.672027587890625-1.980010986328125,3.350006103515625-2.3389892578125M83.209457397460938,54.244232177734375c.386993408203125.886016845703125.613983154296875,1.50799560546875.699005126953125,1.792999267578125.048004150390625.2130126953125.027984619140625.4210205078125.037994384765625.6300048828125.03900146484375-.087982177734375.100982666015625-.157989501953125.13299560546875-.251007080078125.07598876953125-.220001220703125.12799072265625-.444000244140625.156005859375-.673980712890625.045989990234375-.378997802734375.019989013671875-.7659912109375-.07000732421875-1.16400146484375-.084991455078125-.2860107421875-.31201171875-.907012939453125-.699005126953125-1.792999267578125l-.1719970703125-.4010009765625-3.509002685546875.803985595703125c.23101806640625.542999267578125.404998779296875.96600341796875.52301025390625,1.281005859375l2.72900390625-.626007080078125.1719970703125.4010009765625ZM74.594467163085938,47.29522705078125c1.139984130859375-.248992919921875,2.01397705078125.34002685546875,2.618988037109375,1.758026123046875l.05999755859375.136993408203125.8070068359375-.178009033203125-.610015869140625-1.417999267578125c-.60400390625-1.41900634765625-1.47900390625-2.0059814453125-2.618988037109375-1.756988525390625-.941009521484375.204986572265625-1.251007080078125.832977294921875-1.006988525390625,1.837982177734375.180999755859375-.16998291015625.418975830078125-.306976318359375.75-.3800048828125"/>
            </g>
          </g>
        </g>
        <g class="cls-31">
          <g class="cls-25">
            <g class="cls-41">
              <path class="cls-12" d="M80.006393432617188,37.600738525390625s-3.041015625-4.264984130859375-8.4940185546875-3.39697265625c0,0-24.225982666015625,3.842987060546875-39.8389892578125,8.154998779296875,0,0-3.164993286132812.917999267578125-3.949005126953125,4.352996826171875,8.751007080078125,3.964996337890625,19.57501220703125,7.287994384765625,31.49200439453125,9.38897705078125,10.71600341796875,1.8900146484375,20.933990478515625,2.545013427734375,29.847991943359375,2.126007080078125-.0360107421875-.59698486328125-.15399169921875-1.246978759765625-.375-1.95599365234375,0,0-5.709991455078125-14.743988037109375-8.6829833984375-18.670013427734375"/>
            </g>
          </g>
        </g>
      </g>
    </g>
  </g>
</svg>